  0
SECTION
  2
HEADER
  9
$EXTMIN
 10
-0.102000
 20
-0.114000
  9
$EXTMAX
 10
1.005000
 20
1.005000
  9
$LIMMIN
 10
-0.102000
 20
-0.114000
  9
$LIMMAX
 10
1.005000
 20
1.005000
  9
$FILLMODE
 70
  1
  0
ENDSEC
  0
SECTION
  2
TABLES
  0
TABLE
  2
LTYPE
 70
  1
  0
LTYPE
  2
CONTINUOUS
 70
 64
  3
Solid line
 72
 65
 73
  0
 40
0.0
  0
ENDTAB
  0
TABLE
  2
LAYER
 70
 1
  0
LAYER
  2
0
 70
  0
 62
7
  6
CONTINUOUS
  0
LAYER
  2
gg1
 70
  0
 62
1
  6
CONTINUOUS
  0
ENDTAB
  0
TABLE
  2
STYLE
 70
  1
  0
STYLE
  2
STANDARD
 70
  0
 40
0.0
 41
1.0
 50
0.0
 71
  0
 42
0.2
  3
txt
  4

  0
ENDTAB
  0
ENDSEC
  0
SECTION
  2
BLOCKS
  0
BLOCK
  8
0
  2
D10
 70
64
 10
0.0
 20
0.0
  3
D10
  0
CIRCLE
  8
0
 10
0.000000
 20
0.000000
 40
0.005000
 0
ENDBLK
  8
0
  0
BLOCK
  8
0
  2
D11
 70
64
 10
0.0
 20
0.0
  3
D11
  0
CIRCLE
  8
0
 10
0.000000
 20
0.000000
 40
0.002500
 0
ENDBLK
  8
0
  0
BLOCK
  8
0
  2
D12
 70
64
 10
0.0
 20
0.0
  3
D12
  0
CIRCLE
  8
0
 10
0.000000
 20
0.000000
 40
0.003000
 0
ENDBLK
  8
0
  0
BLOCK
  8
0
  2
D13
 70
64
 10
0.0
 20
0.0
  3
D13
  0
CIRCLE
  8
0
 10
0.000000
 20
0.000000
 40
0.001000
 0
ENDBLK
  8
0
  0
ENDSEC
  0
SECTION
  2
ENTITIES
  0
POLYLINE
  8
gg1
 62
1
 40
0.000000
 41
0.000000
 66
  1
  0
VERTEX
  8
gg1
 10
1.000000
 20
-0.085000
  0
VERTEX
  8
gg1
 10
1.000000
 20
-0.012500
  0
SEQEND
  8
gg1
  0
POLYLINE
  8
gg1
 62
1
 40
0.000000
 41
0.000000
 66
  1
  0
VERTEX
  8
gg1
 10
0.000000
 20
-0.085000
  0
VERTEX
  8
gg1
 10
0.000000
 20
-0.012500
  0
SEQEND
  8
gg1
  0
POLYLINE
  8
gg1
 62
1
 40
0.000000
 41
0.000000
 66
  1
  0
VERTEX
  8
gg1
 10
0.679900
 20
-0.075000
  0
VERTEX
  8
gg1
 10
1.000000
 20
-0.075000
  0
SEQEND
  8
gg1
  0
POLYLINE
  8
gg1
 62
1
 40
0.000000
 41
0.000000
 66
  1
  0
VERTEX
  8
gg1
 10
0.000000
 20
-0.075000
  0
VERTEX
  8
gg1
 10
0.288100
 20
-0.075000
  0
SEQEND
  8
gg1
  0
POLYLINE
  8
gg1
 62
1
 40
0.000000
 41
0.000000
 66
  1
  0
VERTEX
  8
gg1
 10
0.940000
 20
-0.055000
  0
VERTEX
  8
gg1
 10
1.000000
 20
-0.075000
  0
SEQEND
  8
gg1
  0
POLYLINE
  8
gg1
 62
1
 40
0.000000
 41
0.000000
 66
  1
  0
VERTEX
  8
gg1
 10
0.940000
 20
-0.095000
  0
VERTEX
  8
gg1
 10
1.000000
 20
-0.075000
  0
SEQEND
  8
gg1
  0
POLYLINE
  8
gg1
 62
1
 40
0.000000
 41
0.000000
 66
  1
  0
VERTEX
  8
gg1
 10
0.000000
 20
-0.075000
  0
VERTEX
  8
gg1
 10
0.060000
 20
-0.095000
  0
SEQEND
  8
gg1
  0
POLYLINE
  8
gg1
 62
1
 40
0.000000
 41
0.000000
 66
  1
  0
VERTEX
  8
gg1
 10
0.000000
 20
-0.075000
  0
VERTEX
  8
gg1
 10
0.060000
 20
-0.055000
  0
SEQEND
  8
gg1
  0
POLYLINE
  8
gg1
 62
1
 40
0.000000
 41
0.000000
 66
  1
  0
VERTEX
  8
gg1
 10
-0.085000
 20
1.000000
  0
VERTEX
  8
gg1
 10
-0.012500
 20
1.000000
  0
SEQEND
  8
gg1
  0
POLYLINE
  8
gg1
 62
1
 40
0.000000
 41
0.000000
 66
  1
  0
VERTEX
  8
gg1
 10
-0.085000
 20
0.000000
  0
VERTEX
  8
gg1
 10
-0.012500
 20
0.000000
  0
SEQEND
  8
gg1
  0
POLYLINE
  8
gg1
 62
1
 40
0.000000
 41
0.000000
 66
  1
  0
VERTEX
  8
gg1
 10
-0.075000
 20
0.679900
  0
VERTEX
  8
gg1
 10
-0.075000
 20
1.000000
  0
SEQEND
  8
gg1
  0
POLYLINE
  8
gg1
 62
1
 40
0.000000
 41
0.000000
 66
  1
  0
VERTEX
  8
gg1
 10
-0.075000
 20
0.000000
  0
VERTEX
  8
gg1
 10
-0.075000
 20
0.288100
  0
SEQEND
  8
gg1
  0
POLYLINE
  8
gg1
 62
1
 40
0.000000
 41
0.000000
 66
  1
  0
VERTEX
  8
gg1
 10
-0.095000
 20
0.940000
  0
VERTEX
  8
gg1
 10
-0.075000
 20
1.000000
  0
VERTEX
  8
gg1
 10
-0.055000
 20
0.940000
  0
SEQEND
  8
gg1
  0
POLYLINE
  8
gg1
 62
1
 40
0.000000
 41
0.000000
 66
  1
  0
VERTEX
  8
gg1
 10
-0.075000
 20
0.000000
  0
VERTEX
  8
gg1
 10
-0.055000
 20
0.060000
  0
SEQEND
  8
gg1
  0
POLYLINE
  8
gg1
 62
1
 40
0.000000
 41
0.000000
 66
  1
  0
VERTEX
  8
gg1
 10
-0.095000
 20
0.060000
  0
VERTEX
  8
gg1
 10
-0.075000
 20
0.000000
  0
SEQEND
  8
gg1
  0
POLYLINE
  8
gg1
 62
1
 40
0.000000
 41
0.000000
 66
  1
  0
VERTEX
  8
gg1
 10
0.000000
 20
0.000000
  0
VERTEX
  8
gg1
 10
1.000000
 20
0.000000
  0
VERTEX
  8
gg1
 10
1.000000
 20
1.000000
  0
SEQEND
  8
gg1
  0
POLYLINE
  8
gg1
 62
1
 40
0.000000
 41
0.000000
 66
  1
  0
VERTEX
  8
gg1
 10
0.000000
 20
1.000000
  0
VERTEX
  8
gg1
 10
1.000000
 20
1.000000
  0
SEQEND
  8
gg1
  0
POLYLINE
  8
gg1
 62
1
 40
0.000000
 41
0.000000
 66
  1
  0
VERTEX
  8
gg1
 10
0.000000
 20
0.000000
  0
VERTEX
  8
gg1
 10
0.000000
 20
1.000000
  0
SEQEND
  8
gg1
  0
POLYLINE
  8
gg1
 62
1
 40
0.000000
 41
0.000000
 66
  1
  0
VERTEX
  8
gg1
 10
0.304100
 20
-0.111000
  0
VERTEX
  8
gg1
 10
0.324100
 20
-0.111000
  0
VERTEX
  8
gg1
 10
0.314100
 20
-0.111000
  0
VERTEX
  8
gg1
 10
0.314100
 20
-0.051000
  0
VERTEX
  8
gg1
 10
0.304100
 20
-0.061000
  0
SEQEND
  8
gg1
  0
POLYLINE
  8
gg1
 62
1
 40
0.000000
 41
0.000000
 66
  1
  0
VERTEX
  8
gg1
 10
0.354000
 20
-0.061000
  0
VERTEX
  8
gg1
 10
0.364000
 20
-0.051000
  0
VERTEX
  8
gg1
 10
0.384000
 20
-0.051000
  0
VERTEX
  8
gg1
 10
0.394000
 20
-0.061000
  0
VERTEX
  8
gg1
 10
0.394000
 20
-0.101000
  0
VERTEX
  8
gg1
 10
0.384000
 20
-0.111000
  0
VERTEX
  8
gg1
 10
0.364000
 20
-0.111000
  0
VERTEX
  8
gg1
 10
0.354000
 20
-0.101000
  0
VERTEX
  8
gg1
 10
0.354000
 20
-0.061000
  0
SEQEND
  8
gg1
  0
POLYLINE
  8
gg1
 62
1
 40
0.000000
 41
0.000000
 66
  1
  0
VERTEX
  8
gg1
 10
0.414000
 20
-0.061000
  0
VERTEX
  8
gg1
 10
0.424000
 20
-0.051000
  0
VERTEX
  8
gg1
 10
0.444000
 20
-0.051000
  0
VERTEX
  8
gg1
 10
0.454000
 20
-0.061000
  0
VERTEX
  8
gg1
 10
0.454000
 20
-0.101000
  0
VERTEX
  8
gg1
 10
0.444000
 20
-0.111000
  0
VERTEX
  8
gg1
 10
0.424000
 20
-0.111000
  0
VERTEX
  8
gg1
 10
0.414000
 20
-0.101000
  0
VERTEX
  8
gg1
 10
0.414000
 20
-0.061000
  0
SEQEND
  8
gg1
  0
POLYLINE
  8
gg1
 62
1
 40
0.000000
 41
0.000000
 66
  1
  0
VERTEX
  8
gg1
 10
0.474000
 20
-0.061000
  0
VERTEX
  8
gg1
 10
0.484000
 20
-0.051000
  0
VERTEX
  8
gg1
 10
0.504000
 20
-0.051000
  0
VERTEX
  8
gg1
 10
0.514000
 20
-0.061000
  0
VERTEX
  8
gg1
 10
0.514000
 20
-0.101000
  0
VERTEX
  8
gg1
 10
0.504000
 20
-0.111000
  0
VERTEX
  8
gg1
 10
0.484000
 20
-0.111000
  0
VERTEX
  8
gg1
 10
0.474000
 20
-0.101000
  0
VERTEX
  8
gg1
 10
0.474000
 20
-0.061000
  0
SEQEND
  8
gg1
  0
POLYLINE
  8
gg1
 62
1
 40
0.000000
 41
0.000000
 66
  1
  0
VERTEX
  8
gg1
 10
0.534000
 20
-0.111000
  0
VERTEX
  8
gg1
 10
0.534000
 20
-0.071000
  0
VERTEX
  8
gg1
 10
0.544000
 20
-0.071000
  0
VERTEX
  8
gg1
 10
0.554000
 20
-0.081000
  0
VERTEX
  8
gg1
 10
0.554000
 20
-0.111000
  0
VERTEX
  8
gg1
 10
0.554000
 20
-0.081000
  0
VERTEX
  8
gg1
 10
0.564000
 20
-0.071000
  0
VERTEX
  8
gg1
 10
0.574000
 20
-0.081000
  0
VERTEX
  8
gg1
 10
0.574000
 20
-0.111000
  0
SEQEND
  8
gg1
  0
POLYLINE
  8
gg1
 62
1
 40
0.000000
 41
0.000000
 66
  1
  0
VERTEX
  8
gg1
 10
0.594000
 20
-0.111000
  0
VERTEX
  8
gg1
 10
0.614000
 20
-0.111000
  0
VERTEX
  8
gg1
 10
0.604000
 20
-0.111000
  0
VERTEX
  8
gg1
 10
0.604000
 20
-0.071000
  0
VERTEX
  8
gg1
 10
0.594000
 20
-0.071000
  0
SEQEND
  8
gg1
  0
POLYLINE
  8
gg1
 62
1
 40
0.000000
 41
0.000000
 66
  1
  0
VERTEX
  8
gg1
 10
0.643900
 20
-0.111000
  0
VERTEX
  8
gg1
 10
0.663900
 20
-0.111000
  0
VERTEX
  8
gg1
 10
0.653900
 20
-0.111000
  0
VERTEX
  8
gg1
 10
0.653900
 20
-0.051000
  0
VERTEX
  8
gg1
 10
0.643900
 20
-0.051000
  0
SEQEND
  8
gg1
  0
POLYLINE
  8
gg1
 62
1
 40
0.000000
 41
0.000000
 66
  1
  0
VERTEX
  8
gg1
 10
-0.039000
 20
0.304100
  0
VERTEX
  8
gg1
 10
-0.039000
 20
0.324100
  0
VERTEX
  8
gg1
 10
-0.039000
 20
0.314100
  0
VERTEX
  8
gg1
 10
-0.099000
 20
0.314100
  0
VERTEX
  8
gg1
 10
-0.089000
 20
0.304100
  0
SEQEND
  8
gg1
  0
POLYLINE
  8
gg1
 62
1
 40
0.000000
 41
0.000000
 66
  1
  0
VERTEX
  8
gg1
 10
-0.089000
 20
0.354000
  0
VERTEX
  8
gg1
 10
-0.099000
 20
0.364000
  0
VERTEX
  8
gg1
 10
-0.099000
 20
0.384000
  0
VERTEX
  8
gg1
 10
-0.089000
 20
0.394000
  0
VERTEX
  8
gg1
 10
-0.049000
 20
0.394000
  0
VERTEX
  8
gg1
 10
-0.039000
 20
0.384000
  0
VERTEX
  8
gg1
 10
-0.039000
 20
0.364000
  0
VERTEX
  8
gg1
 10
-0.049000
 20
0.354000
  0
VERTEX
  8
gg1
 10
-0.089000
 20
0.354000
  0
SEQEND
  8
gg1
  0
POLYLINE
  8
gg1
 62
1
 40
0.000000
 41
0.000000
 66
  1
  0
VERTEX
  8
gg1
 10
-0.089000
 20
0.414000
  0
VERTEX
  8
gg1
 10
-0.099000
 20
0.424000
  0
VERTEX
  8
gg1
 10
-0.099000
 20
0.444000
  0
VERTEX
  8
gg1
 10
-0.089000
 20
0.454000
  0
VERTEX
  8
gg1
 10
-0.049000
 20
0.454000
  0
VERTEX
  8
gg1
 10
-0.039000
 20
0.444000
  0
VERTEX
  8
gg1
 10
-0.039000
 20
0.424000
  0
VERTEX
  8
gg1
 10
-0.049000
 20
0.414000
  0
VERTEX
  8
gg1
 10
-0.089000
 20
0.414000
  0
SEQEND
  8
gg1
  0
POLYLINE
  8
gg1
 62
1
 40
0.000000
 41
0.000000
 66
  1
  0
VERTEX
  8
gg1
 10
-0.089000
 20
0.474000
  0
VERTEX
  8
gg1
 10
-0.099000
 20
0.484000
  0
VERTEX
  8
gg1
 10
-0.099000
 20
0.504000
  0
VERTEX
  8
gg1
 10
-0.089000
 20
0.514000
  0
VERTEX
  8
gg1
 10
-0.049000
 20
0.514000
  0
VERTEX
  8
gg1
 10
-0.039000
 20
0.504000
  0
VERTEX
  8
gg1
 10
-0.039000
 20
0.484000
  0
VERTEX
  8
gg1
 10
-0.049000
 20
0.474000
  0
VERTEX
  8
gg1
 10
-0.089000
 20
0.474000
  0
SEQEND
  8
gg1
  0
POLYLINE
  8
gg1
 62
1
 40
0.000000
 41
0.000000
 66
  1
  0
VERTEX
  8
gg1
 10
-0.039000
 20
0.534000
  0
VERTEX
  8
gg1
 10
-0.079000
 20
0.534000
  0
VERTEX
  8
gg1
 10
-0.079000
 20
0.544000
  0
VERTEX
  8
gg1
 10
-0.069000
 20
0.554000
  0
VERTEX
  8
gg1
 10
-0.039000
 20
0.554000
  0
VERTEX
  8
gg1
 10
-0.069000
 20
0.554000
  0
VERTEX
  8
gg1
 10
-0.079000
 20
0.564000
  0
VERTEX
  8
gg1
 10
-0.069000
 20
0.574000
  0
VERTEX
  8
gg1
 10
-0.039000
 20
0.574000
  0
SEQEND
  8
gg1
  0
POLYLINE
  8
gg1
 62
1
 40
0.000000
 41
0.000000
 66
  1
  0
VERTEX
  8
gg1
 10
-0.039000
 20
0.594000
  0
VERTEX
  8
gg1
 10
-0.039000
 20
0.614000
  0
VERTEX
  8
gg1
 10
-0.039000
 20
0.604000
  0
VERTEX
  8
gg1
 10
-0.079000
 20
0.604000
  0
VERTEX
  8
gg1
 10
-0.079000
 20
0.594000
  0
SEQEND
  8
gg1
  0
POLYLINE
  8
gg1
 62
1
 40
0.000000
 41
0.000000
 66
  1
  0
VERTEX
  8
gg1
 10
-0.039000
 20
0.643900
  0
VERTEX
  8
gg1
 10
-0.039000
 20
0.663900
  0
VERTEX
  8
gg1
 10
-0.039000
 20
0.653900
  0
VERTEX
  8
gg1
 10
-0.099000
 20
0.653900
  0
VERTEX
  8
gg1
 10
-0.099000
 20
0.643900
  0
SEQEND
  8
gg1
  0
POLYLINE
  8
gg1
 62
1
 40
0.000000
 41
0.000000
 66
  1
  0
VERTEX
  8
gg1
 10
0.042000
 20
0.915000
  0
VERTEX
  8
gg1
 10
0.128000
 20
0.915000
  0
SEQEND
  8
gg1
  0
POLYLINE
  8
gg1
 62
1
 40
0.000000
 41
0.000000
 66
  1
  0
VERTEX
  8
gg1
 10
0.085000
 20
0.872000
  0
VERTEX
  8
gg1
 10
0.085000
 20
0.958000
  0
SEQEND
  8
gg1
  0
POLYLINE
  8
gg1
 62
1
 40
0.000000
 41
0.000000
 66
  1
  0
VERTEX
  8
gg1
 10
0.872000
 20
0.085000
  0
VERTEX
  8
gg1
 10
0.958000
 20
0.085000
  0
SEQEND
  8
gg1
  0
POLYLINE
  8
gg1
 62
1
 40
0.000000
 41
0.000000
 66
  1
  0
VERTEX
  8
gg1
 10
0.915000
 20
0.042000
  0
VERTEX
  8
gg1
 10
0.915000
 20
0.128000
  0
SEQEND
  8
gg1
  0
POLYLINE
  8
gg1
 62
1
 40
0.000000
 41
0.000000
 66
  1
  0
VERTEX
  8
gg1
 10
0.042000
 20
0.085000
  0
VERTEX
  8
gg1
 10
0.128000
 20
0.085000
  0
SEQEND
  8
gg1
  0
POLYLINE
  8
gg1
 62
1
 40
0.000000
 41
0.000000
 66
  1
  0
VERTEX
  8
gg1
 10
0.085000
 20
0.042000
  0
VERTEX
  8
gg1
 10
0.085000
 20
0.128000
  0
SEQEND
  8
gg1
  0
POLYLINE
  8
gg1
 62
1
 40
0.000000
 41
0.000000
 66
  1
  0
VERTEX
  8
gg1
 10
0.330000
 20
0.050000
  0
VERTEX
  8
gg1
 10
0.370000
 20
0.050000
  0
SEQEND
  8
gg1
  0
POLYLINE
  8
gg1
 62
1
 40
0.000000
 41
0.000000
 66
  1
  0
VERTEX
  8
gg1
 10
0.350000
 20
0.030000
  0
VERTEX
  8
gg1
 10
0.350000
 20
0.070000
  0
SEQEND
  8
gg1
  0
POLYLINE
  8
gg1
 62
1
 40
0.000000
 41
0.000000
 66
  1
  0
VERTEX
  8
gg1
 10
0.430000
 20
0.050000
  0
VERTEX
  8
gg1
 10
0.470000
 20
0.050000
  0
SEQEND
  8
gg1
  0
POLYLINE
  8
gg1
 62
1
 40
0.000000
 41
0.000000
 66
  1
  0
VERTEX
  8
gg1
 10
0.450000
 20
0.030000
  0
VERTEX
  8
gg1
 10
0.450000
 20
0.070000
  0
SEQEND
  8
gg1
  0
POLYLINE
  8
gg1
 62
1
 40
0.000000
 41
0.000000
 66
  1
  0
VERTEX
  8
gg1
 10
0.530000
 20
0.050000
  0
VERTEX
  8
gg1
 10
0.570000
 20
0.050000
  0
SEQEND
  8
gg1
  0
POLYLINE
  8
gg1
 62
1
 40
0.000000
 41
0.000000
 66
  1
  0
VERTEX
  8
gg1
 10
0.550000
 20
0.030000
  0
VERTEX
  8
gg1
 10
0.550000
 20
0.070000
  0
SEQEND
  8
gg1
  0
POLYLINE
  8
gg1
 62
1
 40
0.000000
 41
0.000000
 66
  1
  0
VERTEX
  8
gg1
 10
0.630000
 20
0.050000
  0
VERTEX
  8
gg1
 10
0.670000
 20
0.050000
  0
SEQEND
  8
gg1
  0
POLYLINE
  8
gg1
 62
1
 40
0.000000
 41
0.000000
 66
  1
  0
VERTEX
  8
gg1
 10
0.650000
 20
0.030000
  0
VERTEX
  8
gg1
 10
0.650000
 20
0.070000
  0
SEQEND
  8
gg1
  0
POLYLINE
  8
gg1
 62
1
 40
0.000000
 41
0.000000
 66
  1
  0
VERTEX
  8
gg1
 10
0.730000
 20
0.050000
  0
VERTEX
  8
gg1
 10
0.770000
 20
0.050000
  0
SEQEND
  8
gg1
  0
POLYLINE
  8
gg1
 62
1
 40
0.000000
 41
0.000000
 66
  1
  0
VERTEX
  8
gg1
 10
0.750000
 20
0.030000
  0
VERTEX
  8
gg1
 10
0.750000
 20
0.070000
  0
SEQEND
  8
gg1
  0
POLYLINE
  8
gg1
 62
1
 40
0.000000
 41
0.000000
 66
  1
  0
VERTEX
  8
gg1
 10
0.230000
 20
0.050000
  0
VERTEX
  8
gg1
 10
0.270000
 20
0.050000
  0
SEQEND
  8
gg1
  0
POLYLINE
  8
gg1
 62
1
 40
0.000000
 41
0.000000
 66
  1
  0
VERTEX
  8
gg1
 10
0.250000
 20
0.030000
  0
VERTEX
  8
gg1
 10
0.250000
 20
0.070000
  0
SEQEND
  8
gg1
  0
POLYLINE
  8
gg1
 62
1
 40
0.000000
 41
0.000000
 66
  1
  0
VERTEX
  8
gg1
 10
0.330000
 20
0.150000
  0
VERTEX
  8
gg1
 10
0.370000
 20
0.150000
  0
SEQEND
  8
gg1
  0
POLYLINE
  8
gg1
 62
1
 40
0.000000
 41
0.000000
 66
  1
  0
VERTEX
  8
gg1
 10
0.350000
 20
0.130000
  0
VERTEX
  8
gg1
 10
0.350000
 20
0.170000
  0
SEQEND
  8
gg1
  0
POLYLINE
  8
gg1
 62
1
 40
0.000000
 41
0.000000
 66
  1
  0
VERTEX
  8
gg1
 10
0.430000
 20
0.150000
  0
VERTEX
  8
gg1
 10
0.470000
 20
0.150000
  0
SEQEND
  8
gg1
  0
POLYLINE
  8
gg1
 62
1
 40
0.000000
 41
0.000000
 66
  1
  0
VERTEX
  8
gg1
 10
0.450000
 20
0.130000
  0
VERTEX
  8
gg1
 10
0.450000
 20
0.170000
  0
SEQEND
  8
gg1
  0
POLYLINE
  8
gg1
 62
1
 40
0.000000
 41
0.000000
 66
  1
  0
VERTEX
  8
gg1
 10
0.530000
 20
0.150000
  0
VERTEX
  8
gg1
 10
0.570000
 20
0.150000
  0
SEQEND
  8
gg1
  0
POLYLINE
  8
gg1
 62
1
 40
0.000000
 41
0.000000
 66
  1
  0
VERTEX
  8
gg1
 10
0.550000
 20
0.130000
  0
VERTEX
  8
gg1
 10
0.550000
 20
0.170000
  0
SEQEND
  8
gg1
  0
POLYLINE
  8
gg1
 62
1
 40
0.000000
 41
0.000000
 66
  1
  0
VERTEX
  8
gg1
 10
0.630000
 20
0.150000
  0
VERTEX
  8
gg1
 10
0.670000
 20
0.150000
  0
SEQEND
  8
gg1
  0
POLYLINE
  8
gg1
 62
1
 40
0.000000
 41
0.000000
 66
  1
  0
VERTEX
  8
gg1
 10
0.650000
 20
0.130000
  0
VERTEX
  8
gg1
 10
0.650000
 20
0.170000
  0
SEQEND
  8
gg1
  0
POLYLINE
  8
gg1
 62
1
 40
0.000000
 41
0.000000
 66
  1
  0
VERTEX
  8
gg1
 10
0.730000
 20
0.150000
  0
VERTEX
  8
gg1
 10
0.770000
 20
0.150000
  0
SEQEND
  8
gg1
  0
POLYLINE
  8
gg1
 62
1
 40
0.000000
 41
0.000000
 66
  1
  0
VERTEX
  8
gg1
 10
0.750000
 20
0.130000
  0
VERTEX
  8
gg1
 10
0.750000
 20
0.170000
  0
SEQEND
  8
gg1
  0
POLYLINE
  8
gg1
 62
1
 40
0.000000
 41
0.000000
 66
  1
  0
VERTEX
  8
gg1
 10
0.230000
 20
0.150000
  0
VERTEX
  8
gg1
 10
0.270000
 20
0.150000
  0
SEQEND
  8
gg1
  0
POLYLINE
  8
gg1
 62
1
 40
0.000000
 41
0.000000
 66
  1
  0
VERTEX
  8
gg1
 10
0.250000
 20
0.130000
  0
VERTEX
  8
gg1
 10
0.250000
 20
0.170000
  0
SEQEND
  8
gg1
  0
POLYLINE
  8
gg1
 62
1
 40
0.000000
 41
0.000000
 66
  1
  0
VERTEX
  8
gg1
 10
0.145000
 20
0.340000
  0
VERTEX
  8
gg1
 10
0.165000
 20
0.340000
  0
SEQEND
  8
gg1
  0
POLYLINE
  8
gg1
 62
1
 40
0.000000
 41
0.000000
 66
  1
  0
VERTEX
  8
gg1
 10
0.155000
 20
0.330000
  0
VERTEX
  8
gg1
 10
0.155000
 20
0.350000
  0
SEQEND
  8
gg1
  0
POLYLINE
  8
gg1
 62
1
 40
0.000000
 41
0.000000
 66
  1
  0
VERTEX
  8
gg1
 10
0.805500
 20
0.788000
  0
VERTEX
  8
gg1
 10
0.820500
 20
0.788000
  0
SEQEND
  8
gg1
  0
POLYLINE
  8
gg1
 62
1
 40
0.000000
 41
0.000000
 66
  1
  0
VERTEX
  8
gg1
 10
0.813000
 20
0.780500
  0
VERTEX
  8
gg1
 10
0.813000
 20
0.795500
  0
SEQEND
  8
gg1
  0
POLYLINE
  8
gg1
 62
1
 40
0.000000
 41
0.000000
 66
  1
  0
VERTEX
  8
gg1
 10
0.632500
 20
0.535000
  0
VERTEX
  8
gg1
 10
0.647500
 20
0.535000
  0
SEQEND
  8
gg1
  0
POLYLINE
  8
gg1
 62
1
 40
0.000000
 41
0.000000
 66
  1
  0
VERTEX
  8
gg1
 10
0.640000
 20
0.527500
  0
VERTEX
  8
gg1
 10
0.640000
 20
0.542500
  0
SEQEND
  8
gg1
  0
POLYLINE
  8
gg1
 62
1
 40
0.000000
 41
0.000000
 66
  1
  0
VERTEX
  8
gg1
 10
0.337500
 20
0.705000
  0
VERTEX
  8
gg1
 10
0.352500
 20
0.705000
  0
SEQEND
  8
gg1
  0
POLYLINE
  8
gg1
 62
1
 40
0.000000
 41
0.000000
 66
  1
  0
VERTEX
  8
gg1
 10
0.345000
 20
0.697500
  0
VERTEX
  8
gg1
 10
0.345000
 20
0.712500
  0
SEQEND
  8
gg1
  0
POLYLINE
  8
gg1
 62
1
 40
0.000000
 41
0.000000
 66
  1
  0
VERTEX
  8
gg1
 10
0.307500
 20
0.705000
  0
VERTEX
  8
gg1
 10
0.322500
 20
0.705000
  0
SEQEND
  8
gg1
  0
POLYLINE
  8
gg1
 62
1
 40
0.000000
 41
0.000000
 66
  1
  0
VERTEX
  8
gg1
 10
0.315000
 20
0.697500
  0
VERTEX
  8
gg1
 10
0.315000
 20
0.712500
  0
SEQEND
  8
gg1
  0
POLYLINE
  8
gg1
 62
1
 40
0.000000
 41
0.000000
 66
  1
  0
VERTEX
  8
gg1
 10
0.277500
 20
0.705000
  0
VERTEX
  8
gg1
 10
0.292500
 20
0.705000
  0
SEQEND
  8
gg1
  0
POLYLINE
  8
gg1
 62
1
 40
0.000000
 41
0.000000
 66
  1
  0
VERTEX
  8
gg1
 10
0.285000
 20
0.697500
  0
VERTEX
  8
gg1
 10
0.285000
 20
0.712500
  0
SEQEND
  8
gg1
  0
POLYLINE
  8
gg1
 62
1
 40
0.000000
 41
0.000000
 66
  1
  0
VERTEX
  8
gg1
 10
0.247500
 20
0.705000
  0
VERTEX
  8
gg1
 10
0.262500
 20
0.705000
  0
SEQEND
  8
gg1
  0
POLYLINE
  8
gg1
 62
1
 40
0.000000
 41
0.000000
 66
  1
  0
VERTEX
  8
gg1
 10
0.255000
 20
0.697500
  0
VERTEX
  8
gg1
 10
0.255000
 20
0.712500
  0
SEQEND
  8
gg1
  0
POLYLINE
  8
gg1
 62
1
 40
0.000000
 41
0.000000
 66
  1
  0
VERTEX
  8
gg1
 10
0.402500
 20
0.490000
  0
VERTEX
  8
gg1
 10
0.417500
 20
0.490000
  0
SEQEND
  8
gg1
  0
POLYLINE
  8
gg1
 62
1
 40
0.000000
 41
0.000000
 66
  1
  0
VERTEX
  8
gg1
 10
0.410000
 20
0.482500
  0
VERTEX
  8
gg1
 10
0.410000
 20
0.497500
  0
SEQEND
  8
gg1
  0
POLYLINE
  8
gg1
 62
1
 40
0.000000
 41
0.000000
 66
  1
  0
VERTEX
  8
gg1
 10
0.312500
 20
0.490000
  0
VERTEX
  8
gg1
 10
0.327500
 20
0.490000
  0
SEQEND
  8
gg1
  0
POLYLINE
  8
gg1
 62
1
 40
0.000000
 41
0.000000
 66
  1
  0
VERTEX
  8
gg1
 10
0.320000
 20
0.482500
  0
VERTEX
  8
gg1
 10
0.320000
 20
0.497500
  0
SEQEND
  8
gg1
  0
POLYLINE
  8
gg1
 62
1
 40
0.000000
 41
0.000000
 66
  1
  0
VERTEX
  8
gg1
 10
0.372500
 20
0.490000
  0
VERTEX
  8
gg1
 10
0.387500
 20
0.490000
  0
SEQEND
  8
gg1
  0
POLYLINE
  8
gg1
 62
1
 40
0.000000
 41
0.000000
 66
  1
  0
VERTEX
  8
gg1
 10
0.380000
 20
0.482500
  0
VERTEX
  8
gg1
 10
0.380000
 20
0.497500
  0
SEQEND
  8
gg1
  0
POLYLINE
  8
gg1
 62
1
 40
0.000000
 41
0.000000
 66
  1
  0
VERTEX
  8
gg1
 10
0.342500
 20
0.490000
  0
VERTEX
  8
gg1
 10
0.357500
 20
0.490000
  0
SEQEND
  8
gg1
  0
POLYLINE
  8
gg1
 62
1
 40
0.000000
 41
0.000000
 66
  1
  0
VERTEX
  8
gg1
 10
0.350000
 20
0.482500
  0
VERTEX
  8
gg1
 10
0.350000
 20
0.497500
  0
SEQEND
  8
gg1
  0
POLYLINE
  8
gg1
 62
1
 40
0.000000
 41
0.000000
 66
  1
  0
VERTEX
  8
gg1
 10
0.642500
 20
0.655000
  0
VERTEX
  8
gg1
 10
0.657500
 20
0.655000
  0
SEQEND
  8
gg1
  0
POLYLINE
  8
gg1
 62
1
 40
0.000000
 41
0.000000
 66
  1
  0
VERTEX
  8
gg1
 10
0.650000
 20
0.647500
  0
VERTEX
  8
gg1
 10
0.650000
 20
0.662500
  0
SEQEND
  8
gg1
  0
POLYLINE
  8
gg1
 62
1
 40
0.000000
 41
0.000000
 66
  1
  0
VERTEX
  8
gg1
 10
0.442500
 20
0.850000
  0
VERTEX
  8
gg1
 10
0.457500
 20
0.850000
  0
SEQEND
  8
gg1
  0
POLYLINE
  8
gg1
 62
1
 40
0.000000
 41
0.000000
 66
  1
  0
VERTEX
  8
gg1
 10
0.450000
 20
0.842500
  0
VERTEX
  8
gg1
 10
0.450000
 20
0.857500
  0
SEQEND
  8
gg1
  0
POLYLINE
  8
gg1
 62
1
 40
0.000000
 41
0.000000
 66
  1
  0
VERTEX
  8
gg1
 10
0.192500
 20
0.475000
  0
VERTEX
  8
gg1
 10
0.207500
 20
0.475000
  0
SEQEND
  8
gg1
  0
POLYLINE
  8
gg1
 62
1
 40
0.000000
 41
0.000000
 66
  1
  0
VERTEX
  8
gg1
 10
0.200000
 20
0.467500
  0
VERTEX
  8
gg1
 10
0.200000
 20
0.482500
  0
SEQEND
  8
gg1
  0
POLYLINE
  8
gg1
 62
1
 40
0.000000
 41
0.000000
 66
  1
  0
VERTEX
  8
gg1
 10
0.387500
 20
0.515000
  0
VERTEX
  8
gg1
 10
0.402500
 20
0.515000
  0
SEQEND
  8
gg1
  0
POLYLINE
  8
gg1
 62
1
 40
0.000000
 41
0.000000
 66
  1
  0
VERTEX
  8
gg1
 10
0.395000
 20
0.507500
  0
VERTEX
  8
gg1
 10
0.395000
 20
0.522500
  0
SEQEND
  8
gg1
  0
POLYLINE
  8
gg1
 62
1
 40
0.000000
 41
0.000000
 66
  1
  0
VERTEX
  8
gg1
 10
0.357500
 20
0.515000
  0
VERTEX
  8
gg1
 10
0.372500
 20
0.515000
  0
SEQEND
  8
gg1
  0
POLYLINE
  8
gg1
 62
1
 40
0.000000
 41
0.000000
 66
  1
  0
VERTEX
  8
gg1
 10
0.365000
 20
0.507500
  0
VERTEX
  8
gg1
 10
0.365000
 20
0.522500
  0
SEQEND
  8
gg1
  0
POLYLINE
  8
gg1
 62
1
 40
0.000000
 41
0.000000
 66
  1
  0
VERTEX
  8
gg1
 10
0.327500
 20
0.515000
  0
VERTEX
  8
gg1
 10
0.342500
 20
0.515000
  0
SEQEND
  8
gg1
  0
POLYLINE
  8
gg1
 62
1
 40
0.000000
 41
0.000000
 66
  1
  0
VERTEX
  8
gg1
 10
0.335000
 20
0.507500
  0
VERTEX
  8
gg1
 10
0.335000
 20
0.522500
  0
SEQEND
  8
gg1
  0
POLYLINE
  8
gg1
 62
1
 40
0.000000
 41
0.000000
 66
  1
  0
VERTEX
  8
gg1
 10
0.297500
 20
0.515000
  0
VERTEX
  8
gg1
 10
0.312500
 20
0.515000
  0
SEQEND
  8
gg1
  0
POLYLINE
  8
gg1
 62
1
 40
0.000000
 41
0.000000
 66
  1
  0
VERTEX
  8
gg1
 10
0.305000
 20
0.507500
  0
VERTEX
  8
gg1
 10
0.305000
 20
0.522500
  0
SEQEND
  8
gg1
  0
POLYLINE
  8
gg1
 62
1
 40
0.000000
 41
0.000000
 66
  1
  0
VERTEX
  8
gg1
 10
0.662500
 20
0.535000
  0
VERTEX
  8
gg1
 10
0.677500
 20
0.535000
  0
SEQEND
  8
gg1
  0
POLYLINE
  8
gg1
 62
1
 40
0.000000
 41
0.000000
 66
  1
  0
VERTEX
  8
gg1
 10
0.670000
 20
0.527500
  0
VERTEX
  8
gg1
 10
0.670000
 20
0.542500
  0
SEQEND
  8
gg1
  0
POLYLINE
  8
gg1
 62
1
 40
0.000000
 41
0.000000
 66
  1
  0
VERTEX
  8
gg1
 10
0.692500
 20
0.535000
  0
VERTEX
  8
gg1
 10
0.707500
 20
0.535000
  0
SEQEND
  8
gg1
  0
POLYLINE
  8
gg1
 62
1
 40
0.000000
 41
0.000000
 66
  1
  0
VERTEX
  8
gg1
 10
0.700000
 20
0.527500
  0
VERTEX
  8
gg1
 10
0.700000
 20
0.542500
  0
SEQEND
  8
gg1
  0
POLYLINE
  8
gg1
 62
1
 40
0.000000
 41
0.000000
 66
  1
  0
VERTEX
  8
gg1
 10
0.722500
 20
0.535000
  0
VERTEX
  8
gg1
 10
0.737500
 20
0.535000
  0
SEQEND
  8
gg1
  0
POLYLINE
  8
gg1
 62
1
 40
0.000000
 41
0.000000
 66
  1
  0
VERTEX
  8
gg1
 10
0.730000
 20
0.527500
  0
VERTEX
  8
gg1
 10
0.730000
 20
0.542500
  0
SEQEND
  8
gg1
  0
POLYLINE
  8
gg1
 62
1
 40
0.000000
 41
0.000000
 66
  1
  0
VERTEX
  8
gg1
 10
0.722500
 20
0.565000
  0
VERTEX
  8
gg1
 10
0.737500
 20
0.565000
  0
SEQEND
  8
gg1
  0
POLYLINE
  8
gg1
 62
1
 40
0.000000
 41
0.000000
 66
  1
  0
VERTEX
  8
gg1
 10
0.730000
 20
0.557500
  0
VERTEX
  8
gg1
 10
0.730000
 20
0.572500
  0
SEQEND
  8
gg1
  0
POLYLINE
  8
gg1
 62
1
 40
0.000000
 41
0.000000
 66
  1
  0
VERTEX
  8
gg1
 10
0.692500
 20
0.565000
  0
VERTEX
  8
gg1
 10
0.707500
 20
0.565000
  0
SEQEND
  8
gg1
  0
POLYLINE
  8
gg1
 62
1
 40
0.000000
 41
0.000000
 66
  1
  0
VERTEX
  8
gg1
 10
0.700000
 20
0.557500
  0
VERTEX
  8
gg1
 10
0.700000
 20
0.572500
  0
SEQEND
  8
gg1
  0
POLYLINE
  8
gg1
 62
1
 40
0.000000
 41
0.000000
 66
  1
  0
VERTEX
  8
gg1
 10
0.662500
 20
0.565000
  0
VERTEX
  8
gg1
 10
0.677500
 20
0.565000
  0
SEQEND
  8
gg1
  0
POLYLINE
  8
gg1
 62
1
 40
0.000000
 41
0.000000
 66
  1
  0
VERTEX
  8
gg1
 10
0.670000
 20
0.557500
  0
VERTEX
  8
gg1
 10
0.670000
 20
0.572500
  0
SEQEND
  8
gg1
  0
POLYLINE
  8
gg1
 62
1
 40
0.000000
 41
0.000000
 66
  1
  0
VERTEX
  8
gg1
 10
0.632500
 20
0.565000
  0
VERTEX
  8
gg1
 10
0.647500
 20
0.565000
  0
SEQEND
  8
gg1
  0
POLYLINE
  8
gg1
 62
1
 40
0.000000
 41
0.000000
 66
  1
  0
VERTEX
  8
gg1
 10
0.640000
 20
0.557500
  0
VERTEX
  8
gg1
 10
0.640000
 20
0.572500
  0
SEQEND
  8
gg1
  0
POLYLINE
  8
gg1
 62
1
 40
0.000000
 41
0.000000
 66
  1
  0
VERTEX
  8
gg1
 10
0.037500
 20
0.335000
  0
VERTEX
  8
gg1
 10
0.052500
 20
0.335000
  0
SEQEND
  8
gg1
  0
POLYLINE
  8
gg1
 62
1
 40
0.000000
 41
0.000000
 66
  1
  0
VERTEX
  8
gg1
 10
0.045000
 20
0.327500
  0
VERTEX
  8
gg1
 10
0.045000
 20
0.342500
  0
SEQEND
  8
gg1
  0
POLYLINE
  8
gg1
 62
1
 40
0.000000
 41
0.000000
 66
  1
  0
VERTEX
  8
gg1
 10
0.152500
 20
0.220000
  0
VERTEX
  8
gg1
 10
0.167500
 20
0.220000
  0
SEQEND
  8
gg1
  0
POLYLINE
  8
gg1
 62
1
 40
0.000000
 41
0.000000
 66
  1
  0
VERTEX
  8
gg1
 10
0.160000
 20
0.212500
  0
VERTEX
  8
gg1
 10
0.160000
 20
0.227500
  0
SEQEND
  8
gg1
  0
POLYLINE
  8
gg1
 62
1
 40
0.000000
 41
0.000000
 66
  1
  0
VERTEX
  8
gg1
 10
0.097500
 20
0.335000
  0
VERTEX
  8
gg1
 10
0.112500
 20
0.335000
  0
SEQEND
  8
gg1
  0
POLYLINE
  8
gg1
 62
1
 40
0.000000
 41
0.000000
 66
  1
  0
VERTEX
  8
gg1
 10
0.105000
 20
0.327500
  0
VERTEX
  8
gg1
 10
0.105000
 20
0.342500
  0
SEQEND
  8
gg1
  0
POLYLINE
  8
gg1
 62
1
 40
0.000000
 41
0.000000
 66
  1
  0
VERTEX
  8
gg1
 10
0.512500
 20
0.230000
  0
VERTEX
  8
gg1
 10
0.527500
 20
0.230000
  0
SEQEND
  8
gg1
  0
POLYLINE
  8
gg1
 62
1
 40
0.000000
 41
0.000000
 66
  1
  0
VERTEX
  8
gg1
 10
0.520000
 20
0.222500
  0
VERTEX
  8
gg1
 10
0.520000
 20
0.237500
  0
SEQEND
  8
gg1
  0
POLYLINE
  8
gg1
 62
1
 40
0.000000
 41
0.000000
 66
  1
  0
VERTEX
  8
gg1
 10
0.642500
 20
0.260000
  0
VERTEX
  8
gg1
 10
0.657500
 20
0.260000
  0
SEQEND
  8
gg1
  0
POLYLINE
  8
gg1
 62
1
 40
0.000000
 41
0.000000
 66
  1
  0
VERTEX
  8
gg1
 10
0.650000
 20
0.252500
  0
VERTEX
  8
gg1
 10
0.650000
 20
0.267500
  0
SEQEND
  8
gg1
  0
POLYLINE
  8
gg1
 62
1
 40
0.000000
 41
0.000000
 66
  1
  0
VERTEX
  8
gg1
 10
0.642500
 20
0.320000
  0
VERTEX
  8
gg1
 10
0.657500
 20
0.320000
  0
SEQEND
  8
gg1
  0
POLYLINE
  8
gg1
 62
1
 40
0.000000
 41
0.000000
 66
  1
  0
VERTEX
  8
gg1
 10
0.650000
 20
0.312500
  0
VERTEX
  8
gg1
 10
0.650000
 20
0.327500
  0
SEQEND
  8
gg1
  0
POLYLINE
  8
gg1
 62
1
 40
0.000000
 41
0.000000
 66
  1
  0
VERTEX
  8
gg1
 10
0.527500
 20
0.485000
  0
VERTEX
  8
gg1
 10
0.542500
 20
0.485000
  0
SEQEND
  8
gg1
  0
POLYLINE
  8
gg1
 62
1
 40
0.000000
 41
0.000000
 66
  1
  0
VERTEX
  8
gg1
 10
0.535000
 20
0.477500
  0
VERTEX
  8
gg1
 10
0.535000
 20
0.492500
  0
SEQEND
  8
gg1
  0
POLYLINE
  8
gg1
 62
1
 40
0.000000
 41
0.000000
 66
  1
  0
VERTEX
  8
gg1
 10
0.527500
 20
0.435000
  0
VERTEX
  8
gg1
 10
0.542500
 20
0.435000
  0
SEQEND
  8
gg1
  0
POLYLINE
  8
gg1
 62
1
 40
0.000000
 41
0.000000
 66
  1
  0
VERTEX
  8
gg1
 10
0.535000
 20
0.427500
  0
VERTEX
  8
gg1
 10
0.535000
 20
0.442500
  0
SEQEND
  8
gg1
  0
POLYLINE
  8
gg1
 62
1
 40
0.000000
 41
0.000000
 66
  1
  0
VERTEX
  8
gg1
 10
0.647500
 20
0.485000
  0
VERTEX
  8
gg1
 10
0.662500
 20
0.485000
  0
SEQEND
  8
gg1
  0
POLYLINE
  8
gg1
 62
1
 40
0.000000
 41
0.000000
 66
  1
  0
VERTEX
  8
gg1
 10
0.655000
 20
0.477500
  0
VERTEX
  8
gg1
 10
0.655000
 20
0.492500
  0
SEQEND
  8
gg1
  0
POLYLINE
  8
gg1
 62
1
 40
0.000000
 41
0.000000
 66
  1
  0
VERTEX
  8
gg1
 10
0.647500
 20
0.435000
  0
VERTEX
  8
gg1
 10
0.662500
 20
0.435000
  0
SEQEND
  8
gg1
  0
POLYLINE
  8
gg1
 62
1
 40
0.000000
 41
0.000000
 66
  1
  0
VERTEX
  8
gg1
 10
0.655000
 20
0.427500
  0
VERTEX
  8
gg1
 10
0.655000
 20
0.442500
  0
SEQEND
  8
gg1
  0
POLYLINE
  8
gg1
 62
1
 40
0.000000
 41
0.000000
 66
  1
  0
VERTEX
  8
gg1
 10
0.567500
 20
0.435000
  0
VERTEX
  8
gg1
 10
0.582500
 20
0.435000
  0
SEQEND
  8
gg1
  0
POLYLINE
  8
gg1
 62
1
 40
0.000000
 41
0.000000
 66
  1
  0
VERTEX
  8
gg1
 10
0.575000
 20
0.427500
  0
VERTEX
  8
gg1
 10
0.575000
 20
0.442500
  0
SEQEND
  8
gg1
  0
POLYLINE
  8
gg1
 62
1
 40
0.000000
 41
0.000000
 66
  1
  0
VERTEX
  8
gg1
 10
0.567500
 20
0.485000
  0
VERTEX
  8
gg1
 10
0.582500
 20
0.485000
  0
SEQEND
  8
gg1
  0
POLYLINE
  8
gg1
 62
1
 40
0.000000
 41
0.000000
 66
  1
  0
VERTEX
  8
gg1
 10
0.575000
 20
0.477500
  0
VERTEX
  8
gg1
 10
0.575000
 20
0.492500
  0
SEQEND
  8
gg1
  0
POLYLINE
  8
gg1
 62
1
 40
0.000000
 41
0.000000
 66
  1
  0
VERTEX
  8
gg1
 10
0.607500
 20
0.485000
  0
VERTEX
  8
gg1
 10
0.622500
 20
0.485000
  0
SEQEND
  8
gg1
  0
POLYLINE
  8
gg1
 62
1
 40
0.000000
 41
0.000000
 66
  1
  0
VERTEX
  8
gg1
 10
0.615000
 20
0.477500
  0
VERTEX
  8
gg1
 10
0.615000
 20
0.492500
  0
SEQEND
  8
gg1
  0
POLYLINE
  8
gg1
 62
1
 40
0.000000
 41
0.000000
 66
  1
  0
VERTEX
  8
gg1
 10
0.607500
 20
0.435000
  0
VERTEX
  8
gg1
 10
0.622500
 20
0.435000
  0
SEQEND
  8
gg1
  0
POLYLINE
  8
gg1
 62
1
 40
0.000000
 41
0.000000
 66
  1
  0
VERTEX
  8
gg1
 10
0.615000
 20
0.427500
  0
VERTEX
  8
gg1
 10
0.615000
 20
0.442500
  0
SEQEND
  8
gg1
  0
POLYLINE
  8
gg1
 62
1
 40
0.000000
 41
0.000000
 66
  1
  0
VERTEX
  8
gg1
 10
0.547500
 20
0.460000
  0
VERTEX
  8
gg1
 10
0.562500
 20
0.460000
  0
SEQEND
  8
gg1
  0
POLYLINE
  8
gg1
 62
1
 40
0.000000
 41
0.000000
 66
  1
  0
VERTEX
  8
gg1
 10
0.555000
 20
0.452500
  0
VERTEX
  8
gg1
 10
0.555000
 20
0.467500
  0
SEQEND
  8
gg1
  0
POLYLINE
  8
gg1
 62
1
 40
0.000000
 41
0.000000
 66
  1
  0
VERTEX
  8
gg1
 10
0.587500
 20
0.460000
  0
VERTEX
  8
gg1
 10
0.602500
 20
0.460000
  0
SEQEND
  8
gg1
  0
POLYLINE
  8
gg1
 62
1
 40
0.000000
 41
0.000000
 66
  1
  0
VERTEX
  8
gg1
 10
0.595000
 20
0.452500
  0
VERTEX
  8
gg1
 10
0.595000
 20
0.467500
  0
SEQEND
  8
gg1
  0
POLYLINE
  8
gg1
 62
1
 40
0.000000
 41
0.000000
 66
  1
  0
VERTEX
  8
gg1
 10
0.627500
 20
0.460000
  0
VERTEX
  8
gg1
 10
0.642500
 20
0.460000
  0
SEQEND
  8
gg1
  0
POLYLINE
  8
gg1
 62
1
 40
0.000000
 41
0.000000
 66
  1
  0
VERTEX
  8
gg1
 10
0.635000
 20
0.452500
  0
VERTEX
  8
gg1
 10
0.635000
 20
0.467500
  0
SEQEND
  8
gg1
  0
POLYLINE
  8
gg1
 62
1
 40
0.000000
 41
0.000000
 66
  1
  0
VERTEX
  8
gg1
 10
0.642500
 20
0.380000
  0
VERTEX
  8
gg1
 10
0.657500
 20
0.380000
  0
SEQEND
  8
gg1
  0
POLYLINE
  8
gg1
 62
1
 40
0.000000
 41
0.000000
 66
  1
  0
VERTEX
  8
gg1
 10
0.650000
 20
0.372500
  0
VERTEX
  8
gg1
 10
0.650000
 20
0.387500
  0
SEQEND
  8
gg1
  0
POLYLINE
  8
gg1
 62
1
 40
0.000000
 41
0.000000
 66
  1
  0
VERTEX
  8
gg1
 10
0.852500
 20
0.890000
  0
VERTEX
  8
gg1
 10
0.867500
 20
0.890000
  0
SEQEND
  8
gg1
  0
POLYLINE
  8
gg1
 62
1
 40
0.000000
 41
0.000000
 66
  1
  0
VERTEX
  8
gg1
 10
0.860000
 20
0.882500
  0
VERTEX
  8
gg1
 10
0.860000
 20
0.897500
  0
SEQEND
  8
gg1
  0
POLYLINE
  8
gg1
 62
1
 40
0.000000
 41
0.000000
 66
  1
  0
VERTEX
  8
gg1
 10
0.882500
 20
0.890000
  0
VERTEX
  8
gg1
 10
0.897500
 20
0.890000
  0
SEQEND
  8
gg1
  0
POLYLINE
  8
gg1
 62
1
 40
0.000000
 41
0.000000
 66
  1
  0
VERTEX
  8
gg1
 10
0.890000
 20
0.882500
  0
VERTEX
  8
gg1
 10
0.890000
 20
0.897500
  0
SEQEND
  8
gg1
  0
POLYLINE
  8
gg1
 62
1
 40
0.000000
 41
0.000000
 66
  1
  0
VERTEX
  8
gg1
 10
0.867500
 20
0.725000
  0
VERTEX
  8
gg1
 10
0.882500
 20
0.725000
  0
SEQEND
  8
gg1
  0
POLYLINE
  8
gg1
 62
1
 40
0.000000
 41
0.000000
 66
  1
  0
VERTEX
  8
gg1
 10
0.875000
 20
0.717500
  0
VERTEX
  8
gg1
 10
0.875000
 20
0.732500
  0
SEQEND
  8
gg1
  0
POLYLINE
  8
gg1
 62
1
 40
0.000000
 41
0.000000
 66
  1
  0
VERTEX
  8
gg1
 10
0.867500
 20
0.665000
  0
VERTEX
  8
gg1
 10
0.882500
 20
0.665000
  0
SEQEND
  8
gg1
  0
POLYLINE
  8
gg1
 62
1
 40
0.000000
 41
0.000000
 66
  1
  0
VERTEX
  8
gg1
 10
0.875000
 20
0.657500
  0
VERTEX
  8
gg1
 10
0.875000
 20
0.672500
  0
SEQEND
  8
gg1
  0
POLYLINE
  8
gg1
 62
1
 40
0.000000
 41
0.000000
 66
  1
  0
VERTEX
  8
gg1
 10
0.867500
 20
0.605000
  0
VERTEX
  8
gg1
 10
0.882500
 20
0.605000
  0
SEQEND
  8
gg1
  0
POLYLINE
  8
gg1
 62
1
 40
0.000000
 41
0.000000
 66
  1
  0
VERTEX
  8
gg1
 10
0.875000
 20
0.597500
  0
VERTEX
  8
gg1
 10
0.875000
 20
0.612500
  0
SEQEND
  8
gg1
  0
POLYLINE
  8
gg1
 62
1
 40
0.000000
 41
0.000000
 66
  1
  0
VERTEX
  8
gg1
 10
0.687500
 20
0.485000
  0
VERTEX
  8
gg1
 10
0.702500
 20
0.485000
  0
SEQEND
  8
gg1
  0
POLYLINE
  8
gg1
 62
1
 40
0.000000
 41
0.000000
 66
  1
  0
VERTEX
  8
gg1
 10
0.695000
 20
0.477500
  0
VERTEX
  8
gg1
 10
0.695000
 20
0.492500
  0
SEQEND
  8
gg1
  0
POLYLINE
  8
gg1
 62
1
 40
0.000000
 41
0.000000
 66
  1
  0
VERTEX
  8
gg1
 10
0.667500
 20
0.460000
  0
VERTEX
  8
gg1
 10
0.682500
 20
0.460000
  0
SEQEND
  8
gg1
  0
POLYLINE
  8
gg1
 62
1
 40
0.000000
 41
0.000000
 66
  1
  0
VERTEX
  8
gg1
 10
0.675000
 20
0.452500
  0
VERTEX
  8
gg1
 10
0.675000
 20
0.467500
  0
SEQEND
  8
gg1
  0
POLYLINE
  8
gg1
 62
1
 40
0.000000
 41
0.000000
 66
  1
  0
VERTEX
  8
gg1
 10
0.727500
 20
0.485000
  0
VERTEX
  8
gg1
 10
0.742500
 20
0.485000
  0
SEQEND
  8
gg1
  0
POLYLINE
  8
gg1
 62
1
 40
0.000000
 41
0.000000
 66
  1
  0
VERTEX
  8
gg1
 10
0.735000
 20
0.477500
  0
VERTEX
  8
gg1
 10
0.735000
 20
0.492500
  0
SEQEND
  8
gg1
  0
POLYLINE
  8
gg1
 62
1
 40
0.000000
 41
0.000000
 66
  1
  0
VERTEX
  8
gg1
 10
0.852500
 20
0.550000
  0
VERTEX
  8
gg1
 10
0.867500
 20
0.550000
  0
SEQEND
  8
gg1
  0
POLYLINE
  8
gg1
 62
1
 40
0.000000
 41
0.000000
 66
  1
  0
VERTEX
  8
gg1
 10
0.860000
 20
0.542500
  0
VERTEX
  8
gg1
 10
0.860000
 20
0.557500
  0
SEQEND
  8
gg1
  0
POLYLINE
  8
gg1
 62
1
 40
0.000000
 41
0.000000
 66
  1
  0
VERTEX
  8
gg1
 10
0.277500
 20
0.960000
  0
VERTEX
  8
gg1
 10
0.292500
 20
0.960000
  0
SEQEND
  8
gg1
  0
POLYLINE
  8
gg1
 62
1
 40
0.000000
 41
0.000000
 66
  1
  0
VERTEX
  8
gg1
 10
0.285000
 20
0.952500
  0
VERTEX
  8
gg1
 10
0.285000
 20
0.967500
  0
SEQEND
  8
gg1
  0
POLYLINE
  8
gg1
 62
1
 40
0.000000
 41
0.000000
 66
  1
  0
VERTEX
  8
gg1
 10
0.377500
 20
0.960000
  0
VERTEX
  8
gg1
 10
0.392500
 20
0.960000
  0
SEQEND
  8
gg1
  0
POLYLINE
  8
gg1
 62
1
 40
0.000000
 41
0.000000
 66
  1
  0
VERTEX
  8
gg1
 10
0.385000
 20
0.952500
  0
VERTEX
  8
gg1
 10
0.385000
 20
0.967500
  0
SEQEND
  8
gg1
  0
POLYLINE
  8
gg1
 62
1
 40
0.000000
 41
0.000000
 66
  1
  0
VERTEX
  8
gg1
 10
0.477500
 20
0.960000
  0
VERTEX
  8
gg1
 10
0.492500
 20
0.960000
  0
SEQEND
  8
gg1
  0
POLYLINE
  8
gg1
 62
1
 40
0.000000
 41
0.000000
 66
  1
  0
VERTEX
  8
gg1
 10
0.485000
 20
0.952500
  0
VERTEX
  8
gg1
 10
0.485000
 20
0.967500
  0
SEQEND
  8
gg1
  0
POLYLINE
  8
gg1
 62
1
 40
0.000000
 41
0.000000
 66
  1
  0
VERTEX
  8
gg1
 10
0.577500
 20
0.960000
  0
VERTEX
  8
gg1
 10
0.592500
 20
0.960000
  0
SEQEND
  8
gg1
  0
POLYLINE
  8
gg1
 62
1
 40
0.000000
 41
0.000000
 66
  1
  0
VERTEX
  8
gg1
 10
0.585000
 20
0.952500
  0
VERTEX
  8
gg1
 10
0.585000
 20
0.967500
  0
SEQEND
  8
gg1
  0
POLYLINE
  8
gg1
 62
1
 40
0.000000
 41
0.000000
 66
  1
  0
VERTEX
  8
gg1
 10
0.917500
 20
0.795000
  0
VERTEX
  8
gg1
 10
0.932500
 20
0.795000
  0
SEQEND
  8
gg1
  0
POLYLINE
  8
gg1
 62
1
 40
0.000000
 41
0.000000
 66
  1
  0
VERTEX
  8
gg1
 10
0.925000
 20
0.787500
  0
VERTEX
  8
gg1
 10
0.925000
 20
0.802500
  0
SEQEND
  8
gg1
  0
POLYLINE
  8
gg1
 62
1
 40
0.000000
 41
0.000000
 66
  1
  0
VERTEX
  8
gg1
 10
0.912500
 20
0.640000
  0
VERTEX
  8
gg1
 10
0.927500
 20
0.640000
  0
SEQEND
  8
gg1
  0
POLYLINE
  8
gg1
 62
1
 40
0.000000
 41
0.000000
 66
  1
  0
VERTEX
  8
gg1
 10
0.920000
 20
0.632500
  0
VERTEX
  8
gg1
 10
0.920000
 20
0.647500
  0
SEQEND
  8
gg1
  0
POLYLINE
  8
gg1
 62
1
 40
0.000000
 41
0.000000
 66
  1
  0
VERTEX
  8
gg1
 10
0.942500
 20
0.440000
  0
VERTEX
  8
gg1
 10
0.957500
 20
0.440000
  0
SEQEND
  8
gg1
  0
POLYLINE
  8
gg1
 62
1
 40
0.000000
 41
0.000000
 66
  1
  0
VERTEX
  8
gg1
 10
0.950000
 20
0.432500
  0
VERTEX
  8
gg1
 10
0.950000
 20
0.447500
  0
SEQEND
  8
gg1
  0
POLYLINE
  8
gg1
 62
1
 40
0.000000
 41
0.000000
 66
  1
  0
VERTEX
  8
gg1
 10
0.767500
 20
0.485000
  0
VERTEX
  8
gg1
 10
0.782500
 20
0.485000
  0
SEQEND
  8
gg1
  0
POLYLINE
  8
gg1
 62
1
 40
0.000000
 41
0.000000
 66
  1
  0
VERTEX
  8
gg1
 10
0.775000
 20
0.477500
  0
VERTEX
  8
gg1
 10
0.775000
 20
0.492500
  0
SEQEND
  8
gg1
  0
POLYLINE
  8
gg1
 62
1
 40
0.000000
 41
0.000000
 66
  1
  0
VERTEX
  8
gg1
 10
0.707500
 20
0.460000
  0
VERTEX
  8
gg1
 10
0.722500
 20
0.460000
  0
SEQEND
  8
gg1
  0
POLYLINE
  8
gg1
 62
1
 40
0.000000
 41
0.000000
 66
  1
  0
VERTEX
  8
gg1
 10
0.715000
 20
0.452500
  0
VERTEX
  8
gg1
 10
0.715000
 20
0.467500
  0
SEQEND
  8
gg1
  0
POLYLINE
  8
gg1
 62
1
 40
0.000000
 41
0.000000
 66
  1
  0
VERTEX
  8
gg1
 10
0.857500
 20
0.330000
  0
VERTEX
  8
gg1
 10
0.872500
 20
0.330000
  0
SEQEND
  8
gg1
  0
POLYLINE
  8
gg1
 62
1
 40
0.000000
 41
0.000000
 66
  1
  0
VERTEX
  8
gg1
 10
0.865000
 20
0.322500
  0
VERTEX
  8
gg1
 10
0.865000
 20
0.337500
  0
SEQEND
  8
gg1
  0
POLYLINE
  8
gg1
 62
1
 40
0.000000
 41
0.000000
 66
  1
  0
VERTEX
  8
gg1
 10
0.857500
 20
0.220000
  0
VERTEX
  8
gg1
 10
0.872500
 20
0.220000
  0
SEQEND
  8
gg1
  0
POLYLINE
  8
gg1
 62
1
 40
0.000000
 41
0.000000
 66
  1
  0
VERTEX
  8
gg1
 10
0.865000
 20
0.212500
  0
VERTEX
  8
gg1
 10
0.865000
 20
0.227500
  0
SEQEND
  8
gg1
  0
POLYLINE
  8
gg1
 62
1
 40
0.000000
 41
0.000000
 66
  1
  0
VERTEX
  8
gg1
 10
0.942500
 20
0.330000
  0
VERTEX
  8
gg1
 10
0.957500
 20
0.330000
  0
SEQEND
  8
gg1
  0
POLYLINE
  8
gg1
 62
1
 40
0.000000
 41
0.000000
 66
  1
  0
VERTEX
  8
gg1
 10
0.950000
 20
0.322500
  0
VERTEX
  8
gg1
 10
0.950000
 20
0.337500
  0
SEQEND
  8
gg1
  0
POLYLINE
  8
gg1
 62
1
 40
0.000000
 41
0.000000
 66
  1
  0
VERTEX
  8
gg1
 10
0.857500
 20
0.275000
  0
VERTEX
  8
gg1
 10
0.872500
 20
0.275000
  0
SEQEND
  8
gg1
  0
POLYLINE
  8
gg1
 62
1
 40
0.000000
 41
0.000000
 66
  1
  0
VERTEX
  8
gg1
 10
0.865000
 20
0.267500
  0
VERTEX
  8
gg1
 10
0.865000
 20
0.282500
  0
SEQEND
  8
gg1
  0
POLYLINE
  8
gg1
 62
1
 40
0.000000
 41
0.000000
 66
  1
  0
VERTEX
  8
gg1
 10
0.942500
 20
0.385000
  0
VERTEX
  8
gg1
 10
0.957500
 20
0.385000
  0
SEQEND
  8
gg1
  0
POLYLINE
  8
gg1
 62
1
 40
0.000000
 41
0.000000
 66
  1
  0
VERTEX
  8
gg1
 10
0.950000
 20
0.377500
  0
VERTEX
  8
gg1
 10
0.950000
 20
0.392500
  0
SEQEND
  8
gg1
  0
POLYLINE
  8
gg1
 62
1
 40
0.000000
 41
0.000000
 66
  1
  0
VERTEX
  8
gg1
 10
0.942500
 20
0.275000
  0
VERTEX
  8
gg1
 10
0.957500
 20
0.275000
  0
SEQEND
  8
gg1
  0
POLYLINE
  8
gg1
 62
1
 40
0.000000
 41
0.000000
 66
  1
  0
VERTEX
  8
gg1
 10
0.950000
 20
0.267500
  0
VERTEX
  8
gg1
 10
0.950000
 20
0.282500
  0
SEQEND
  8
gg1
  0
POLYLINE
  8
gg1
 62
1
 40
0.000000
 41
0.000000
 66
  1
  0
VERTEX
  8
gg1
 10
0.042500
 20
0.665000
  0
VERTEX
  8
gg1
 10
0.057500
 20
0.665000
  0
SEQEND
  8
gg1
  0
POLYLINE
  8
gg1
 62
1
 40
0.000000
 41
0.000000
 66
  1
  0
VERTEX
  8
gg1
 10
0.050000
 20
0.657500
  0
VERTEX
  8
gg1
 10
0.050000
 20
0.672500
  0
SEQEND
  8
gg1
  0
POLYLINE
  8
gg1
 62
1
 40
0.000000
 41
0.000000
 66
  1
  0
VERTEX
  8
gg1
 10
0.042500
 20
0.775000
  0
VERTEX
  8
gg1
 10
0.057500
 20
0.775000
  0
SEQEND
  8
gg1
  0
POLYLINE
  8
gg1
 62
1
 40
0.000000
 41
0.000000
 66
  1
  0
VERTEX
  8
gg1
 10
0.050000
 20
0.767500
  0
VERTEX
  8
gg1
 10
0.050000
 20
0.782500
  0
SEQEND
  8
gg1
  0
POLYLINE
  8
gg1
 62
1
 40
0.000000
 41
0.000000
 66
  1
  0
VERTEX
  8
gg1
 10
0.042500
 20
0.720000
  0
VERTEX
  8
gg1
 10
0.057500
 20
0.720000
  0
SEQEND
  8
gg1
  0
POLYLINE
  8
gg1
 62
1
 40
0.000000
 41
0.000000
 66
  1
  0
VERTEX
  8
gg1
 10
0.050000
 20
0.712500
  0
VERTEX
  8
gg1
 10
0.050000
 20
0.727500
  0
SEQEND
  8
gg1
  0
POLYLINE
  8
gg1
 62
1
 40
0.000000
 41
0.000000
 66
  1
  0
VERTEX
  8
gg1
 10
0.152500
 20
0.260000
  0
VERTEX
  8
gg1
 10
0.167500
 20
0.260000
  0
SEQEND
  8
gg1
  0
POLYLINE
  8
gg1
 62
1
 40
0.000000
 41
0.000000
 66
  1
  0
VERTEX
  8
gg1
 10
0.160000
 20
0.252500
  0
VERTEX
  8
gg1
 10
0.160000
 20
0.267500
  0
SEQEND
  8
gg1
  0
POLYLINE
  8
gg1
 62
1
 40
0.000000
 41
0.000000
 66
  1
  0
VERTEX
  8
gg1
 10
0.434000
 20
0.667200
  0
VERTEX
  8
gg1
 10
0.446000
 20
0.667200
  0
SEQEND
  8
gg1
  0
POLYLINE
  8
gg1
 62
1
 40
0.000000
 41
0.000000
 66
  1
  0
VERTEX
  8
gg1
 10
0.440000
 20
0.661200
  0
VERTEX
  8
gg1
 10
0.440000
 20
0.673200
  0
SEQEND
  8
gg1
  0
POLYLINE
  8
gg1
 62
1
 40
0.000000
 41
0.000000
 66
  1
  0
VERTEX
  8
gg1
 10
0.467300
 20
0.667200
  0
VERTEX
  8
gg1
 10
0.479300
 20
0.667200
  0
SEQEND
  8
gg1
  0
POLYLINE
  8
gg1
 62
1
 40
0.000000
 41
0.000000
 66
  1
  0
VERTEX
  8
gg1
 10
0.473300
 20
0.661200
  0
VERTEX
  8
gg1
 10
0.473300
 20
0.673200
  0
SEQEND
  8
gg1
  0
POLYLINE
  8
gg1
 62
1
 40
0.000000
 41
0.000000
 66
  1
  0
VERTEX
  8
gg1
 10
0.534000
 20
0.667200
  0
VERTEX
  8
gg1
 10
0.546000
 20
0.667200
  0
SEQEND
  8
gg1
  0
POLYLINE
  8
gg1
 62
1
 40
0.000000
 41
0.000000
 66
  1
  0
VERTEX
  8
gg1
 10
0.540000
 20
0.661200
  0
VERTEX
  8
gg1
 10
0.540000
 20
0.673200
  0
SEQEND
  8
gg1
  0
POLYLINE
  8
gg1
 62
1
 40
0.000000
 41
0.000000
 66
  1
  0
VERTEX
  8
gg1
 10
0.500700
 20
0.667200
  0
VERTEX
  8
gg1
 10
0.512700
 20
0.667200
  0
SEQEND
  8
gg1
  0
POLYLINE
  8
gg1
 62
1
 40
0.000000
 41
0.000000
 66
  1
  0
VERTEX
  8
gg1
 10
0.506700
 20
0.661200
  0
VERTEX
  8
gg1
 10
0.506700
 20
0.673200
  0
SEQEND
  8
gg1
  0
POLYLINE
  8
gg1
 62
1
 40
0.000000
 41
0.000000
 66
  1
  0
VERTEX
  8
gg1
 10
0.436800
 20
0.615000
  0
VERTEX
  8
gg1
 10
0.448800
 20
0.615000
  0
SEQEND
  8
gg1
  0
POLYLINE
  8
gg1
 62
1
 40
0.000000
 41
0.000000
 66
  1
  0
VERTEX
  8
gg1
 10
0.442800
 20
0.609000
  0
VERTEX
  8
gg1
 10
0.442800
 20
0.621000
  0
SEQEND
  8
gg1
  0
POLYLINE
  8
gg1
 62
1
 40
0.000000
 41
0.000000
 66
  1
  0
VERTEX
  8
gg1
 10
0.436800
 20
0.580600
  0
VERTEX
  8
gg1
 10
0.448800
 20
0.580600
  0
SEQEND
  8
gg1
  0
POLYLINE
  8
gg1
 62
1
 40
0.000000
 41
0.000000
 66
  1
  0
VERTEX
  8
gg1
 10
0.442800
 20
0.574600
  0
VERTEX
  8
gg1
 10
0.442800
 20
0.586600
  0
SEQEND
  8
gg1
  0
POLYLINE
  8
gg1
 62
1
 40
0.000000
 41
0.000000
 66
  1
  0
VERTEX
  8
gg1
 10
0.436800
 20
0.546300
  0
VERTEX
  8
gg1
 10
0.448800
 20
0.546300
  0
SEQEND
  8
gg1
  0
POLYLINE
  8
gg1
 62
1
 40
0.000000
 41
0.000000
 66
  1
  0
VERTEX
  8
gg1
 10
0.442800
 20
0.540300
  0
VERTEX
  8
gg1
 10
0.442800
 20
0.552300
  0
SEQEND
  8
gg1
  0
POLYLINE
  8
gg1
 62
1
 40
0.000000
 41
0.000000
 66
  1
  0
VERTEX
  8
gg1
 10
0.486500
 20
0.546300
  0
VERTEX
  8
gg1
 10
0.498500
 20
0.546300
  0
SEQEND
  8
gg1
  0
POLYLINE
  8
gg1
 62
1
 40
0.000000
 41
0.000000
 66
  1
  0
VERTEX
  8
gg1
 10
0.492500
 20
0.540300
  0
VERTEX
  8
gg1
 10
0.492500
 20
0.552300
  0
SEQEND
  8
gg1
  0
POLYLINE
  8
gg1
 62
1
 40
0.000000
 41
0.000000
 66
  1
  0
VERTEX
  8
gg1
 10
0.486500
 20
0.615000
  0
VERTEX
  8
gg1
 10
0.498500
 20
0.615000
  0
SEQEND
  8
gg1
  0
POLYLINE
  8
gg1
 62
1
 40
0.000000
 41
0.000000
 66
  1
  0
VERTEX
  8
gg1
 10
0.492500
 20
0.609000
  0
VERTEX
  8
gg1
 10
0.492500
 20
0.621000
  0
SEQEND
  8
gg1
  0
POLYLINE
  8
gg1
 62
1
 40
0.000000
 41
0.000000
 66
  1
  0
VERTEX
  8
gg1
 10
0.486500
 20
0.580600
  0
VERTEX
  8
gg1
 10
0.498500
 20
0.580600
  0
SEQEND
  8
gg1
  0
POLYLINE
  8
gg1
 62
1
 40
0.000000
 41
0.000000
 66
  1
  0
VERTEX
  8
gg1
 10
0.492500
 20
0.574600
  0
VERTEX
  8
gg1
 10
0.492500
 20
0.586600
  0
SEQEND
  8
gg1
  0
POLYLINE
  8
gg1
 62
1
 40
0.000000
 41
0.000000
 66
  1
  0
VERTEX
  8
gg1
 10
0.511500
 20
0.563400
  0
VERTEX
  8
gg1
 10
0.523500
 20
0.563400
  0
SEQEND
  8
gg1
  0
POLYLINE
  8
gg1
 62
1
 40
0.000000
 41
0.000000
 66
  1
  0
VERTEX
  8
gg1
 10
0.517500
 20
0.557400
  0
VERTEX
  8
gg1
 10
0.517500
 20
0.569400
  0
SEQEND
  8
gg1
  0
POLYLINE
  8
gg1
 62
1
 40
0.000000
 41
0.000000
 66
  1
  0
VERTEX
  8
gg1
 10
0.511500
 20
0.597800
  0
VERTEX
  8
gg1
 10
0.523500
 20
0.597800
  0
SEQEND
  8
gg1
  0
POLYLINE
  8
gg1
 62
1
 40
0.000000
 41
0.000000
 66
  1
  0
VERTEX
  8
gg1
 10
0.517500
 20
0.591800
  0
VERTEX
  8
gg1
 10
0.517500
 20
0.603800
  0
SEQEND
  8
gg1
  0
POLYLINE
  8
gg1
 62
1
 40
0.000000
 41
0.000000
 66
  1
  0
VERTEX
  8
gg1
 10
0.536500
 20
0.580600
  0
VERTEX
  8
gg1
 10
0.548500
 20
0.580600
  0
SEQEND
  8
gg1
  0
POLYLINE
  8
gg1
 62
1
 40
0.000000
 41
0.000000
 66
  1
  0
VERTEX
  8
gg1
 10
0.542500
 20
0.574600
  0
VERTEX
  8
gg1
 10
0.542500
 20
0.586600
  0
SEQEND
  8
gg1
  0
POLYLINE
  8
gg1
 62
1
 40
0.000000
 41
0.000000
 66
  1
  0
VERTEX
  8
gg1
 10
0.536500
 20
0.546300
  0
VERTEX
  8
gg1
 10
0.548500
 20
0.546300
  0
SEQEND
  8
gg1
  0
POLYLINE
  8
gg1
 62
1
 40
0.000000
 41
0.000000
 66
  1
  0
VERTEX
  8
gg1
 10
0.542500
 20
0.540300
  0
VERTEX
  8
gg1
 10
0.542500
 20
0.552300
  0
SEQEND
  8
gg1
  0
ENDSEC
  0
EOF
